HIERARCHY
ROOT Hips
{
	OFFSET 0.000000 0.000000 0.000000
	CHANNELS 6 Xposition Yposition Zposition Zrotation Yrotation Xrotation 
	JOINT LowerBack
	{
		OFFSET 0.000000 0.000000 0.000000
		CHANNELS 3 Zrotation Yrotation Xrotation
		JOINT Spine
		{
			OFFSET 0.028270 2.035590 -0.193380
			CHANNELS 3 Zrotation Yrotation Xrotation
			JOINT Spine1
			{
				OFFSET 0.056720 2.048850 -0.042750
				CHANNELS 3 Zrotation Yrotation Xrotation
				JOINT Neck
				{
					OFFSET 0.000000 0.000000 0.000000
					CHANNELS 3 Zrotation Yrotation Xrotation
					JOINT Neck1
					{
						OFFSET -0.054170 1.746240 0.172020
						CHANNELS 3 Zrotation Yrotation Xrotation
						JOINT Head
						{
							OFFSET 0.104070 1.761360 -0.123970
							CHANNELS 3 Zrotation Yrotation Xrotation
							End Site
							{
								OFFSET 0.000000 0.000000 0.000000
							}
						}
					}
				}
				JOINT LeftShoulder
				{
					OFFSET 0.000000 0.000000 0.000000
					CHANNELS 3 Zrotation Yrotation Xrotation
					JOINT LeftArm
					{
						OFFSET 3.362410 1.200890 -0.311210
						CHANNELS 3 Zrotation Yrotation Xrotation
						JOINT LeftForeArm
						{
							OFFSET 4.983000 -0.000000 -0.000000
							CHANNELS 3 Zrotation Yrotation Xrotation
							JOINT LeftHand
							{
								OFFSET 3.483560 -0.000000 -0.000000
								CHANNELS 3 Zrotation Yrotation Xrotation
								JOINT LeftFingerBase
								{
									OFFSET 0.000000 0.000000 0.000000
									CHANNELS 3 Zrotation Yrotation Xrotation
									JOINT LeftHandIndex1
									{
										OFFSET 0.715260 -0.000000 -0.000000
										CHANNELS 3 Zrotation Yrotation Xrotation
										End Site
										{
											OFFSET 0.000000 0.000000 0.000000
										}
									}
								}
								JOINT LThumb
								{
									OFFSET 0.000000 0.000000 0.000000
									CHANNELS 3 Zrotation Yrotation Xrotation
									End Site
									{
										OFFSET 0.000000 0.000000 0.000000
									}
								}
							}
						}
					}
				}
				JOINT RightShoulder
				{
					OFFSET 0.000000 0.000000 0.000000
					CHANNELS 3 Zrotation Yrotation Xrotation
					JOINT RightArm
					{
						OFFSET -3.136600 1.374050 -0.404650
						CHANNELS 3 Zrotation Yrotation Xrotation
						JOINT RightForeArm
						{
							OFFSET -5.241900 -0.000000 -0.000000
							CHANNELS 3 Zrotation Yrotation Xrotation
							JOINT RightHand
							{
								OFFSET -3.444170 -0.000000 -0.000000
								CHANNELS 3 Zrotation Yrotation Xrotation
								JOINT RightFingerBase
								{
									OFFSET 0.000000 0.000000 0.000000
									CHANNELS 3 Zrotation Yrotation Xrotation
									JOINT RightHandIndex1
									{
										OFFSET -0.622530 -0.000000 -0.000000
										CHANNELS 3 Zrotation Yrotation Xrotation
										End Site
										{
											OFFSET 0.000000 0.000000 0.000000
										}
									}
								}
								JOINT RThumb
								{
									OFFSET 0.000000 0.000000 0.000000
									CHANNELS 3 Zrotation Yrotation Xrotation
									End Site
									{
										OFFSET 0.000000 0.000000 0.000000
									}
								}
							}
						}
					}
				}
			}
		}
	}
}
}
MOTION
Frames: 7
Frame Time: 0.008333
-2.067850 17.094945 -0.307497 17.414218 75.528240 28.622822 -1.336543 2.116672 -6.532546 -1.324718 1.918740 -3.881151 -6.793117 1.868278 1.891905 10.197466 -7.106392 -9.421817 -3.569428 -0.266784 -0.477404 0.000000 0.000000 0.000000 -5.767181 25.969979 0.707261 -63.687873 12.623251 -16.861903 -2.784053 -42.173498 0.009614 10.119818 0.557054 0.055675 -0.147230 -0.053087 -0.000000 0.000000 0.000000 0.000000 0.000000 0.000000 0.000000 17.072699 1.292167 -0.783227 71.628302 13.236401 5.812313 2.420160 44.005844 0.006488 -1.375731 7.201820 -0.092794 0.074026 -0.234406 -0.000000 0.000000 0.000000 0.000000 0.000000 0.000000 0.000000 
-1.937285 17.098953 -0.277738 18.301856 75.093551 29.350809 -1.593364 1.977448 -6.481175 -1.363429 1.808592 -3.869813 -6.778994 1.756017 1.897405 10.261108 -7.303470 -9.457997 -3.589376 -0.267872 -0.487598 0.000000 0.000000 0.000000 -5.644394 25.639279 0.693631 -63.747008 12.177685 -16.539590 -2.769488 -42.401965 0.009236 10.158741 0.480630 0.048685 -0.146916 -0.049492 -0.000000 0.000000 0.000000 0.000000 0.000000 0.000000 0.000000 17.310691 0.971772 -0.743563 71.974499 12.776399 5.766653 2.461771 43.079935 0.006354 -1.460651 7.042967 -0.096222 0.076389 -0.227167 -0.000000 0.000000 0.000000 0.000000 0.000000 0.000000 0.000000 
-1.808743 17.102123 -0.247882 19.090184 74.640605 30.002763 -1.836285 1.828961 -6.441266 -1.398164 1.687271 -3.859415 -6.762250 1.632555 1.905630 10.321508 -7.500030 -9.497978 -3.608940 -0.268889 -0.498754 0.000000 0.000000 0.000000 -5.533321 25.314556 0.679960 -63.799221 11.698072 -16.145722 -2.753526 -42.670628 0.008854 10.190613 0.388604 0.040197 -0.146655 -0.045696 -0.000000 0.000000 0.000000 0.000000 0.000000 0.000000 0.000000 17.543500 0.645940 -0.704283 72.284948 12.303609 5.760470 2.500861 42.196369 0.006296 -1.513605 6.882106 -0.097452 0.078320 -0.219932 -0.000000 0.000000 0.000000 0.000000 0.000000 0.000000 0.000000 
-1.682098 17.104717 -0.218023 19.754891 74.170711 30.554136 -2.055658 1.672721 -6.411900 -1.427181 1.555402 -3.850402 -6.744251 1.498510 1.913892 10.377810 -7.698450 -9.539466 -3.628577 -0.269914 -0.510156 0.000000 0.000000 0.000000 -5.446537 24.982833 0.665297 -63.828900 11.205561 -15.677670 -2.735229 -42.992247 0.008465 10.219567 0.295226 0.031512 -0.146411 -0.041852 -0.000000 0.000000 0.000000 0.000000 0.000000 0.000000 0.000000 17.771391 0.312135 -0.664053 72.557156 11.820553 5.796549 2.538645 41.349284 0.006323 -1.536318 6.732462 -0.096780 0.079899 -0.212779 -0.000000 0.000000 0.000000 0.000000 0.000000 0.000000 0.000000 
-1.557317 17.107059 -0.188047 20.306887 73.684137 31.010454 -2.252427 1.509082 -6.389525 -1.450857 1.413556 -3.842263 -6.726237 1.354497 1.921567 10.431082 -7.897323 -9.581008 -3.648661 -0.270992 -0.521447 0.000000 0.000000 0.000000 -5.384929 24.642621 0.649674 -63.826577 10.699322 -15.133227 -2.714984 -43.357969 0.008049 10.249297 0.210669 0.023529 -0.146188 -0.037988 -0.000000 0.000000 0.000000 0.000000 0.000000 0.000000 0.000000 17.996368 -0.028506 -0.623228 72.790628 11.324691 5.864420 2.575481 40.536504 0.006438 -1.529778 6.602577 -0.094509 0.081138 -0.205762 -0.000000 0.000000 0.000000 0.000000 0.000000 0.000000 0.000000 
-1.434332 17.109456 -0.157679 20.777623 73.180574 31.396926 -2.435475 1.337795 -6.370300 -1.471268 1.262446 -3.833510 -6.709527 1.201386 1.931937 10.484385 -8.086198 -9.622972 -3.669566 -0.272116 -0.532957 0.000000 0.000000 0.000000 -5.334381 24.318067 0.634225 -63.791212 10.139659 -14.506352 -2.695484 -43.724250 0.007575 10.282821 0.136586 0.016547 -0.146072 -0.033954 -0.000000 0.000000 0.000000 0.000000 0.000000 0.000000 0.000000 18.222113 -0.364803 -0.585293 72.987941 10.803035 5.932537 2.610472 39.766442 0.006634 -1.490796 6.494620 -0.090737 0.081924 -0.198914 -0.000000 0.000000 0.000000 0.000000 0.000000 0.000000 0.000000 
-1.313176 17.112366 -0.127156 21.136797 72.661394 31.677051 -2.590893 1.162076 -6.347550 -1.485808 1.104233 -3.823913 -6.694553 1.041400 1.940750 10.533372 -8.272113 -9.662184 -3.691113 -0.273320 -0.543701 0.000000 0.000000 0.000000 -5.309554 23.983879 0.618298 -63.712266 9.557852 -13.805929 -2.675213 -44.109178 0.007036 10.319602 0.087310 0.011666 -0.145996 -0.029917 -0.000000 0.000000 0.000000 0.000000 0.000000 0.000000 0.000000 18.442670 -0.704718 -0.547745 73.150926 10.264079 5.995598 2.644951 39.021557 0.006893 -1.432171 6.415468 -0.086165 0.082458 -0.192261 -0.000000 0.000000 0.000000 0.000000 0.000000 0.000000 0.000000 
